# xmcd CD database file
#
# Track frame offsets:
#	150
#	17700
#	33588
#	51335
#	67678
#	82313
#	98148
#	117155
#	134050
#	145623
#	161418
#	179318
#	190555
#	208625
#	217875
#	235458
#	254178
#
# Disc length: 3646 seconds
#
# Revision: 0
# Processed by: cddbd v1.4PL0 Copyright (c) Steve Scherf et al.
# Submitted via: CDex 1.40Beta9
#
DISCID=f60e3c11
DTITLE=CLARENCE EDWARDS - Swamps the word
DYEAR=1900
DGENRE=Blues
TTITLE0=STOOP DOWN BABY
TTITLE1=ROCKY MOUNTAINS
TTITLE2=CHEWING GUM
TTITLE3=I'M YOUR SLAVE
TTITLE4=DRIVING WHEEL
TTITLE5=WALKING THE DOG
TTITLE6=STILL A FOOL (ACOUSTIC and ELECTRICAL VERSION)
TTITLE7=LONESOME BEDROOM BLUES
TTITLE8=DONE GOT OVER IT
TTITLE9=LET ME LOVE YOU
TTITLE10=I'M THE ONE
TTITLE11=I WANT SOMEBODY
TTITLE12=BORN WITH THE BLUES
TTITLE13=COAL BLACK MARE
TTITLE14=THINGS I USED TO DO
TTITLE15=HI HEEL SNEAKERS
TTITLE16=HOOCHIE COOCHIE MAN
EXTD=ID3G: 0
EXTT0=
EXTT1=
EXTT2=
EXTT3=
EXTT4=
EXTT5=
EXTT6=
EXTT7=
EXTT8=
EXTT9=
EXTT10=
EXTT11=
EXTT12=
EXTT13=
EXTT14=
EXTT15=
EXTT16=
PLAYORDER=
